<svg width="66" height="65" viewBox="0 0 66 65" fill="none" xmlns="http://www.w3.org/2000/svg">
<rect width="66" height="65" rx="10" fill="#F6F8FF"/>
<path d="M26.6111 26.1499L26.8386 26.1304C26.9247 26.1207 27.0027 26.0898 27.0677 26.0443L27.0661 26.0459C27.2838 26.7967 27.5504 27.5865 27.8835 28.4136C28.3109 29.4959 28.7318 30.3848 29.203 31.2428L29.138 31.1128C29.099 31.7043 29.0519 32.3121 28.9901 32.9004C28.9609 33.2628 28.8894 33.6008 28.7805 33.9193L28.7886 33.89C28.7691 33.8982 28.7415 37.2701 28.7415 37.2701C28.7431 39.4688 30.2658 41.31 32.3134 41.7992L32.3459 41.8057C32.4385 41.57 32.6628 41.4059 32.926 41.4059H33.8588C34.1204 41.4091 34.3447 41.5716 34.4373 41.8008L34.4389 41.8057C36.5239 41.3149 38.0531 39.4737 38.0612 37.2734C38.0612 37.2734 38.0043 33.9144 37.9751 33.8917C37.8857 33.6073 37.8142 33.2725 37.7768 32.928L37.7752 32.9036C37.7183 32.3121 37.6809 31.719 37.6273 31.1161C38.0287 30.3913 38.4496 29.504 38.8201 28.5891L38.8818 28.4169C39.215 27.5897 39.4733 26.8016 39.6992 26.0492C39.7626 26.0947 39.8406 26.1255 39.9251 26.1353H39.9267L40.1559 26.1548C40.4321 26.184 40.6759 25.9565 40.6986 25.6039L40.9456 22.4659C40.9456 22.4643 40.9456 22.4627 40.9456 22.4627C40.9456 22.1978 40.7474 21.98 40.4923 21.9475H40.489H40.4614C40.5248 21.4909 40.5605 20.9644 40.5605 20.4297C40.5605 19.2629 40.3883 18.1352 40.0681 17.074L40.0892 17.1569C39.1516 15.0996 37.2925 13.6061 35.0532 13.1885L35.011 13.182C34.5299 13.0829 33.9693 13.0163 33.3973 13H33.3827H33.3632C32.7798 13.0114 32.2191 13.0764 31.6764 13.1918L31.7349 13.182C29.4565 13.611 27.6007 15.1044 26.6744 17.113L26.6566 17.1569C26.3543 18.1319 26.1804 19.2532 26.1804 20.4135C26.1804 20.9546 26.2178 21.4876 26.2909 22.0077L26.2844 21.9475C26.0261 21.9768 25.8262 22.1929 25.8262 22.4562V22.4675L26.0732 25.6055C26.0959 25.9663 26.3429 26.184 26.6094 26.1548L26.6111 26.1499Z" fill="#F7DECE"/>
<path d="M50.8034 46.9176C50.6897 41.9775 50.1957 40.8594 49.9291 40.1022C49.8235 39.7983 49.7374 37.7442 46.3443 36.4117C44.2642 35.5927 41.5796 35.5764 39.3078 34.616V37.2876C39.3029 40.1607 37.2456 42.5511 34.5237 43.0728L34.4863 43.0793C34.4359 43.375 34.1824 43.596 33.8785 43.5993H33.8493V45.6143C33.8493 47.5839 35.4451 49.1797 37.4146 49.1797C39.3842 49.1797 40.98 47.5839 40.98 45.6143V44.2071C39.992 44.0592 39.2428 43.2174 39.2428 42.2001C39.2428 41.0805 40.1512 40.1721 41.2709 40.1721C42.3905 40.1721 43.2989 41.0805 43.2989 42.2001C43.2989 43.0874 42.7285 43.8414 41.9355 44.1177L41.9209 44.1226V45.6143V45.6907C41.9209 48.1803 39.9026 50.1986 37.413 50.1986C34.9234 50.1986 32.9051 48.1803 32.9051 45.6907C32.9051 45.6631 32.9051 45.6371 32.9051 45.6095V45.6127V43.5798C32.6159 43.5603 32.3819 43.3425 32.3363 43.063V43.0598C29.59 42.5251 27.5424 40.1428 27.5359 37.2811V34.5884C25.2544 35.5683 22.5535 35.5878 20.4621 36.4084C17.0592 37.7394 16.9812 39.7885 16.8772 40.0973C16.6172 40.8578 16.1167 41.971 16.003 46.9144C15.9835 47.5644 16.003 48.5606 17.9628 49.4316C22.2302 51.1054 27.7277 51.6254 33.1472 51.9992H33.6673C39.0982 51.6287 44.5876 51.1103 48.8517 49.4316C50.8034 48.5654 50.8213 47.5742 50.8034 46.9176ZM26.9461 44.9026H24.9212V46.9355H23.4749V44.9091H21.4501V43.4628H23.4749V41.438H24.9212V43.4628H26.9461V44.9026Z" fill="#577CFF"/>
<path d="M42.367 42.1837C42.367 41.5791 41.8779 41.0884 41.2733 41.0884C40.6688 41.0884 40.1797 41.5775 40.1797 42.182C40.1797 42.7866 40.6688 43.2757 41.2733 43.2757C41.8762 43.2757 42.3654 42.7866 42.367 42.1837Z" fill="black"/>
</svg>
